51 chronicles what happens after political pressure from the American public forces the Air Force to provide a few well-known reporters with limited access to the most secretive base on the planet: Area 51. When one of the base's hidden 'long term visitors' exploits this unprecedented visit as a chance to liberate himself and his fellow alien captives, Area 51 turns from a secure government base to a horrifying destination of terror.

51 chronicles what happens after political pressure from the American public forces the Air Force to provide a few well-known reporters with limited access to the most secretive base on the planet: Area 51. When one of the base's hidden 'long term visitors' exploits this unprecedented visit as a chance to liberate himself and his fellow alien captives, Area 51 turns from a secure government base to a horrifying destination of terror.

IMDB rating: 3.6/10 (from 577 users)

CAST: 
Jason London............Aaron 'Shoes' Schumacher
Rachel Miner............Sgt. Hannah
Beau Brasseaux..........Airmen (as Beau Brasso)
Bruce Boxleitner........Col. Martin
Vanessa Branch..........Claire
Andrew Sensenig.........Dr. Keane
John Shea...............Sam Whitaker
Jillian Batherson.......Gomez
Lena Clark..............Mindy
Damon Lipari............Kevin
Tammi Arender...........Sharon Solomon
Billy Slaughter.........Dr. Haven
J.D. Evermore...........Smith
Luke Sexton.............Lt. Walters
Nedal Yousef............Airman Baxter

Format                           : Matroska
File size                        : 739 MiB
Duration                         : 1h 29mn
Overall bit rate                 : 1 153 Kbps
Encoded date                     : UTC 2011-09-29 17:12:33
Writing application              : mkvmerge v4.9.1 ('Ich will') creado el Jul 11 2011 23:53:15
Writing library                  : libebml v1.2.1 + libmatroska v1.1.1

Video
ID                               : 1
Format                           : AVC
Format/Info                      : Advanced Video Codec
Format profile                   : Main@L3.0
Format settings, CABAC           : Yes
Format settings, ReFrames        : 4 frames
Muxing mode                      : Container profile=Unknown@3.0
Codec ID                         : V_MPEG4/ISO/AVC
Duration                         : 1h 29mn
Bit rate                         : 938 Kbps
Nominal bit rate                 : 960 Kbps
Width                            : 624 pixels
Height                           : 352 pixels
Display aspect ratio             : 16:9
Frame rate mode                  : Variable
Frame rate                       : 23.976 fps
Resolution                       : 8 bits
Colorimetry                      : 4:2:0
Scan type                        : Progressive
Bits/(Pixel*Frame)               : 0.178
Stream size                      : 601 MiB (81%)
Writing library                  : x264 core 112


Audio
ID                               : 2
Format                           : AC-3
Format/Info                      : Audio Coding 3
Codec ID                         : A_AC3
Duration                         : 1h 29mn
Bit rate mode                    : Constant
Bit rate                         : 192 Kbps
Channel(s)                       : 2 channels
Channel positions                : Front: L R
Sampling rate                    : 48.0 KHz
Stream size                      : 123 MiB (17%)

Text (subtitles)
ID                               : 3
Format                           : UTF-8
Codec ID                         : S_TEXT/UTF8
Codec ID/Info                    : UTF-8 Plain Text
Language                         : ROMANIAN


Recommended player :VLC media player....http://www.videolan.org/vlc/

SEED back for SPEED 